<svg xmlns="http://www.w3.org/2000/svg" viewBox="0 0 25.93 25.02"><defs><style>.cls-1{fill:#fff;}</style></defs><title>Fichier 1</title><g id="Calque_2" data-name="Calque 2"><g id="Calque_1-2" data-name="Calque 1"><g id="Page-1"><g id="DESKTOP-home"><g id="CTA"><g id="cards-2"><g id="cards"><path id="Shape" class="cls-1" d="M24.38,10.63a.39.39,0,0,0,.45-.31L25.9,4.25a2,2,0,0,0-1.64-2.31L13.42,0a2,2,0,0,0-2.33,1.61L10.78,3.4l-9.21,2A2,2,0,0,0,.05,7.76l1.36,6a.4.4,0,0,0,.47.3.38.38,0,0,0,.29-.46L.81,7.6a1.22,1.22,0,0,1,.93-1.46L12.48,3.82A1.25,1.25,0,0,1,14,4.75l3.57,15.7a1.21,1.21,0,0,1-.94,1.45L5.85,24.22a1.24,1.24,0,0,1-1.48-.93l-1.8-7.92a.39.39,0,0,0-.46-.3.39.39,0,0,0-.3.46l1.8,7.93a2,2,0,0,0,.89,1.25,2.22,2.22,0,0,0,.74.28A2.05,2.05,0,0,0,6,25l10.73-2.32a2,2,0,0,0,1.51-1.42l2.52.44a2,2,0,0,0,2.33-1.6l1.39-7.91a.39.39,0,0,0-.76-.14l-1.4,7.91a1.24,1.24,0,0,1-1.43,1l-2.6-.46,0-.17-1.22-5.37,0,0,3.12-2.76a1.2,1.2,0,0,0,.24-1.43l-2-3.63a.93.93,0,0,0-.63-.47h0a.85.85,0,0,0-.73.22L15.53,8.21l-.82-3.62a2,2,0,0,0-2.4-1.52l-.71.15.26-1.45a1.23,1.23,0,0,1,1.43-1L24.13,2.7a1.22,1.22,0,0,1,1,1.41l-1.07,6.08A.38.38,0,0,0,24.38,10.63ZM17.63,7.39a.12.12,0,0,1,.08,0,.22.22,0,0,1,.09.08l2,3.63a.46.46,0,0,1-.08.5l-2.83,2.5-1.13-5Z"/><path class="cls-1" d="M8.59,17.25l0,0a2.2,2.2,0,0,0,.66.26,1.41,1.41,0,0,0,1.44-.77l0,0,1.38-2.4a2.61,2.61,0,0,0-.7-3.38A1.7,1.7,0,0,0,10,10.7a2.68,2.68,0,0,0-1.46,1,2.46,2.46,0,0,0-1.72-.27,1.79,1.79,0,0,0-1.16.87,2.6,2.6,0,0,0,.7,3.38ZM6.3,12.7A1,1,0,0,1,7,12.19a1.91,1.91,0,0,1,1.47.36.41.41,0,0,0,.29,0A.35.35,0,0,0,9,12.42a2.05,2.05,0,0,1,1.2-1,1,1,0,0,1,.82.16A1.81,1.81,0,0,1,11.48,14L10.1,16.34c-.33.5-.6.57-1.11.27l-2.2-1.55A1.81,1.81,0,0,1,6.3,12.7Z"/></g></g></g></g></g></g></g></svg>